<svg width="55" height="55" viewBox="0 0 55 55" fill="none" xmlns="http://www.w3.org/2000/svg">
<path d="M42.8543 28.4167C42.2127 28.0501 41.5481 27.7522 40.8835 27.5001C41.5481 27.248 42.2127 26.9501 42.8543 26.5834C47.2543 24.0397 49.7064 19.4334 49.7293 14.6897C45.6272 12.3292 40.4022 12.1459 35.9793 14.6897C35.3377 15.0563 34.7418 15.4917 34.1918 15.9272C34.3064 15.2167 34.3752 14.4834 34.3752 13.7501C34.3752 8.66257 31.6022 4.23966 27.5002 1.85632C23.3981 4.23966 20.6252 8.66257 20.6252 13.7501C20.6252 14.4834 20.6939 15.2167 20.8085 15.9272C20.2585 15.4688 19.6627 15.0334 19.021 14.6667C14.621 12.123 9.396 12.3063 5.271 14.6667C5.271 19.4105 7.72308 24.0167 12.146 26.5605C12.7877 26.9272 13.4522 27.2251 14.1168 27.4772C13.4522 27.7292 12.7877 28.0272 12.146 28.3938C7.746 30.9376 5.29391 35.5438 5.271 40.2876C9.37308 42.648 14.5981 42.8313 19.021 40.2876C19.6627 39.9209 20.2585 39.4855 20.8085 39.0501C20.6939 39.7834 20.6252 40.5167 20.6252 41.2501C20.6252 46.3376 23.3981 50.7605 27.5002 53.1438C31.6022 50.7605 34.3752 46.3376 34.3752 41.2501C34.3752 40.5167 34.3064 39.7834 34.1918 39.073C34.7418 39.5313 35.3377 39.9438 35.9793 40.3105C40.3793 42.8542 45.6043 42.6709 49.7293 40.3105C49.7064 35.5667 47.2543 30.9605 42.8543 28.4167V28.4167ZM27.5002 36.6667C22.4356 36.6667 18.3335 32.5647 18.3335 27.5001C18.3335 22.4355 22.4356 18.3334 27.5002 18.3334C32.5647 18.3334 36.6668 22.4355 36.6668 27.5001C36.6668 32.5647 32.5647 36.6667 27.5002 36.6667Z" fill="#F4A297"/>
</svg>
