<svg width="55" height="55" viewBox="0 0 55 55" fill="none" xmlns="http://www.w3.org/2000/svg">
<path d="M27.5 6.875C16.1104 6.875 6.875 16.1104 6.875 27.5C6.875 38.8896 16.1104 48.125 27.5 48.125C29.4021 48.125 30.9375 46.5896 30.9375 44.6875C30.9375 43.7938 30.5938 42.9917 30.0438 42.3729C29.5167 41.7771 29.1729 40.975 29.1729 40.1042C29.1729 38.2021 30.7083 36.6667 32.6104 36.6667H36.6667C42.9917 36.6667 48.125 31.5333 48.125 25.2083C48.125 15.0792 38.8896 6.875 27.5 6.875ZM14.8958 27.5C12.9938 27.5 11.4583 25.9646 11.4583 24.0625C11.4583 22.1604 12.9938 20.625 14.8958 20.625C16.7979 20.625 18.3333 22.1604 18.3333 24.0625C18.3333 25.9646 16.7979 27.5 14.8958 27.5ZM21.7708 18.3333C19.8688 18.3333 18.3333 16.7979 18.3333 14.8958C18.3333 12.9938 19.8688 11.4583 21.7708 11.4583C23.6729 11.4583 25.2083 12.9938 25.2083 14.8958C25.2083 16.7979 23.6729 18.3333 21.7708 18.3333ZM33.2292 18.3333C31.3271 18.3333 29.7917 16.7979 29.7917 14.8958C29.7917 12.9938 31.3271 11.4583 33.2292 11.4583C35.1313 11.4583 36.6667 12.9938 36.6667 14.8958C36.6667 16.7979 35.1313 18.3333 33.2292 18.3333ZM40.1042 27.5C38.2021 27.5 36.6667 25.9646 36.6667 24.0625C36.6667 22.1604 38.2021 20.625 40.1042 20.625C42.0063 20.625 43.5417 22.1604 43.5417 24.0625C43.5417 25.9646 42.0063 27.5 40.1042 27.5Z" fill="#FFBB35"/>
</svg>
